<?xml version="1.0" encoding="UTF-8" standalone="no"?>
<svg
   xmlns:dc="http://purl.org/dc/elements/1.1/"
   xmlns:cc="http://creativecommons.org/ns#"
   xmlns:rdf="http://www.w3.org/1999/02/22-rdf-syntax-ns#"
   xmlns:svg="http://www.w3.org/2000/svg"
   xmlns="http://www.w3.org/2000/svg"
   xmlns:sodipodi="http://sodipodi.sourceforge.net/DTD/sodipodi-0.dtd"
   xmlns:inkscape="http://www.inkscape.org/namespaces/inkscape"
   viewBox="0 0 512 512"
   version="1.1"
   id="svg10"
   sodipodi:docname="GoogleScholar-black.svg"
   inkscape:version="0.92.4 (unknown)">
  <metadata
     id="metadata16">
    <rdf:RDF>
      <cc:Work
         rdf:about="">
        <dc:format>image/svg+xml</dc:format>
        <dc:type
           rdf:resource="http://purl.org/dc/dcmitype/StillImage" />
      </cc:Work>
    </rdf:RDF>
  </metadata>
  <defs
     id="defs14" />
  <sodipodi:namedview
     pagecolor="#ffffff"
     bordercolor="#666666"
     borderopacity="1"
     objecttolerance="10"
     gridtolerance="10"
     guidetolerance="10"
     inkscape:pageopacity="0"
     inkscape:pageshadow="2"
     inkscape:window-width="1490"
     inkscape:window-height="971"
     id="namedview12"
     showgrid="false"
     inkscape:zoom="0.4609375"
     inkscape:cx="65.51956"
     inkscape:cy="269.56981"
     inkscape:window-x="0"
     inkscape:window-y="0"
     inkscape:window-maximized="0"
     inkscape:current-layer="svg10" />
  <path
     d="M 256 0 L 0 202.66797 L 256 411.11914 L 256 298.66797 L 121.03711 298.66797 C 145.00511 248.21497 196.429 213.33203 256 213.33203 L 256 0 z "
     id="path2" />
  <path
     d="M 256 0 L 256 213.33203 C 315.571 213.33203 366.99489 248.21497 390.96289 298.66797 L 256 298.66797 L 256 411.11914 L 512 202.66797 L 256 0 z "
     id="path4" />
  <path
     d="M 163.24609 245.63867 A 149.33299 149.33299 0 0 0 163.13281 245.72852 C 163.17052 245.69853 163.20836 245.66862 163.24609 245.63867 z M 351.93945 248.25 C 352.09067 248.37693 352.24383 248.50139 352.39453 248.62891 A 149.33299 149.33299 0 0 0 351.93945 248.25 z M 152.24609 255.29102 A 149.33299 149.33299 0 0 0 151.76953 255.74609 C 151.92675 255.5928 152.0882 255.44362 152.24609 255.29102 z M 362.78906 258.3125 C 362.99214 258.52028 363.19656 258.72658 363.39844 258.93555 A 149.33299 149.33299 0 0 0 362.78906 258.3125 z M 142.04102 266.18945 A 149.33299 149.33299 0 0 0 141.5918 266.7168 C 141.74032 266.53989 141.89169 266.36566 142.04102 266.18945 z M 372.77148 269.60742 C 372.9021 269.7711 373.03217 269.93537 373.16211 270.09961 A 149.33299 149.33299 0 0 0 372.77148 269.60742 z M 132.83789 278.23242 A 149.33299 149.33299 0 0 0 132.67578 278.4668 C 132.7294 278.38842 132.78413 278.31069 132.83789 278.23242 z M 381.64258 281.95703 C 381.65509 281.97647 381.66718 281.99618 381.67969 282.01562 A 149.33299 149.33299 0 0 0 381.64258 281.95703 z M 121.2793 298.66797 A 149.33299 149.33299 0 0 0 106.66797 362.66797 A 149.33299 149.33299 0 0 0 256 512 A 149.33299 149.33299 0 0 0 405.33203 362.66797 A 149.33299 149.33299 0 0 0 390.75977 298.66797 L 121.2793 298.66797 z "
     id="circle6" />
</svg>
