<?xml version="1.0" encoding="UTF-8" standalone="no"?>
<svg
   xmlns:dc="http://purl.org/dc/elements/1.1/"
   xmlns:cc="http://creativecommons.org/ns#"
   xmlns:rdf="http://www.w3.org/1999/02/22-rdf-syntax-ns#"
   xmlns:svg="http://www.w3.org/2000/svg"
   xmlns="http://www.w3.org/2000/svg"
   id="svg8"
   version="1.1"
   viewBox="0 0 25 26"
   height="26mm"
   width="25mm">
  <defs
     id="defs2" />
  <metadata
     id="metadata5">
    <rdf:RDF>
      <cc:Work
         rdf:about="">
        <dc:format>image/svg+xml</dc:format>
        <dc:type
           rdf:resource="http://purl.org/dc/dcmitype/StillImage" />
        <dc:title></dc:title>
      </cc:Work>
    </rdf:RDF>
  </metadata>
  <g
     transform="translate(-27.970238,-29.72619)"
     id="layer1" />
  <path
     id="path815"
     d="m 12.5,21.6667 c -1.1542,0 -2.1542,-0.2514 -3,-0.754 C 8.65721,20.412 7.98339,19.7027 7.55521,18.8654 7.09997,17.9942 6.76672,17.0729 6.56354,16.1239 6.34796,15.0947 6.24294,14.0483 6.25,13 6.25,12.1699 6.30417,11.3764 6.41354,10.6176 6.52188,9.8598 6.72292,9.0894 7.01563,8.30748 7.30833,7.52555 7.68542,6.84763 8.14479,6.27274 8.62304,5.68378 9.24141,5.20438 9.95208,4.87163 10.6979,4.51244 11.5458,4.33333 12.5,4.33333 c 1.1542,0 2.1542,0.25134 3,0.754 0.8428,0.50067 1.5166,1.21 1.9448,2.04726 0.4521,0.86185 0.7823,1.77571 0.9917,2.74151 C 18.6448,10.841 18.75,11.883 18.75,13 c 0,0.8301 -0.0542,1.6236 -0.1635,2.3824 -0.1166,0.7878 -0.3226,1.5622 -0.6146,2.3101 -0.3021,0.7819 -0.6771,1.4599 -1.1292,2.0348 -0.4521,0.5748 -1.05,1.0419 -1.7948,1.4011 -0.7448,0.3592 -1.5937,0.5383 -2.5479,0.5383 z m 2.2063,-6.3722 C 15.304,14.6944 15.6365,13.864 15.625,13 c 0,-0.8927 -0.299,-1.6575 -0.8958,-2.2945 C 14.1313,10.0685 13.3885,9.75 12.5,9.75 c -0.8885,0 -1.6312,0.3185 -2.2292,0.9555 C 9.68532,11.3123 9.36198,12.1405 9.375,13 c 0,0.8927 0.29896,1.6575 0.8958,2.2945 0.598,0.637 1.3407,0.9555 2.2292,0.9555 0.8885,0 1.624,-0.3185 2.2063,-0.9555 z M 12.5,26 C 19.4031,26 25,20.1792 25,13 25,5.82075 19.4031,0 12.5,0 5.59687,0 0,5.82075 0,13 0,20.1792 5.59687,26 12.5,26 Z"
     style="fill:#000000;stroke:none;stroke-width:0.26458332px;stroke-linecap:butt;stroke-linejoin:miter;stroke-opacity:1" />
</svg>
